<svg xmlns="http://www.w3.org/2000/svg" xmlns:xlink="http://www.w3.org/1999/xlink" width="500" zoomAndPan="magnify" viewBox="0 0 375 74.999997" height="100" preserveAspectRatio="xMidYMid meet" version="1.0"><defs><g/><clipPath id="4c1482787e"><path d="M 61.6875 15.628906 L 103.6875 15.628906 L 103.6875 59.128906 L 61.6875 59.128906 Z M 61.6875 15.628906 " clip-rule="nonzero"/></clipPath></defs><g fill="#ffffff" fill-opacity="1"><g transform="translate(7.045849, 71.12632)"><g><path d="M 39.703125 -54.6875 L 39.703125 -48.890625 L 24.796875 -48.890625 L 24.796875 0 L 17.65625 0 L 17.65625 -48.890625 L 2.671875 -48.890625 L 2.671875 -54.6875 Z M 39.703125 -54.6875 "/></g></g></g><g fill="#ffffff" fill-opacity="1"><g transform="translate(49.491147, 71.12632)"><g><path d="M 3.375 -21.65625 C 3.375 -26.050781 4.257812 -29.910156 6.03125 -33.234375 C 7.8125 -36.554688 10.257812 -39.128906 13.375 -40.953125 C 16.488281 -42.785156 19.957031 -43.703125 23.78125 -43.703125 C 27.539062 -43.703125 30.804688 -42.890625 33.578125 -41.265625 C 36.359375 -39.648438 38.425781 -37.613281 39.78125 -35.15625 L 39.78125 -43 L 47 -43 L 47 0 L 39.78125 0 L 39.78125 -8 C 38.375 -5.488281 36.269531 -3.410156 33.46875 -1.765625 C 30.664062 -0.117188 27.410156 0.703125 23.703125 0.703125 C 19.878906 0.703125 16.421875 -0.234375 13.328125 -2.109375 C 10.242188 -3.992188 7.8125 -6.632812 6.03125 -10.03125 C 4.257812 -13.4375 3.375 -17.3125 3.375 -21.65625 Z M 39.78125 -21.578125 C 39.78125 -24.816406 39.125 -27.640625 37.8125 -30.046875 C 36.507812 -32.453125 34.742188 -34.296875 32.515625 -35.578125 C 30.296875 -36.867188 27.851562 -37.515625 25.1875 -37.515625 C 22.519531 -37.515625 20.085938 -36.882812 17.890625 -35.625 C 15.691406 -34.363281 13.9375 -32.53125 12.625 -30.125 C 11.320312 -27.71875 10.671875 -24.894531 10.671875 -21.65625 C 10.671875 -18.363281 11.320312 -15.5 12.625 -13.0625 C 13.9375 -10.632812 15.691406 -8.78125 17.890625 -7.5 C 20.085938 -6.21875 22.519531 -5.578125 25.1875 -5.578125 C 27.851562 -5.578125 30.296875 -6.21875 32.515625 -7.5 C 34.742188 -8.78125 36.507812 -10.632812 37.8125 -13.0625 C 39.125 -15.5 39.78125 -18.335938 39.78125 -21.578125 Z M 39.78125 -21.578125 "/></g></g></g><g fill="#ffffff" fill-opacity="1"><g transform="translate(102.528157, 71.12632)"><g><path d="M 21.265625 0.703125 C 17.972656 0.703125 15.015625 0.136719 12.390625 -0.984375 C 9.773438 -2.109375 7.707031 -3.675781 6.1875 -5.6875 C 4.675781 -7.695312 3.84375 -10.015625 3.6875 -12.640625 L 11.0625 -12.640625 C 11.269531 -10.492188 12.273438 -8.738281 14.078125 -7.375 C 15.890625 -6.007812 18.257812 -5.328125 21.1875 -5.328125 C 23.90625 -5.328125 26.046875 -5.929688 27.609375 -7.140625 C 29.179688 -8.347656 29.96875 -9.863281 29.96875 -11.6875 C 29.96875 -13.570312 29.128906 -14.972656 27.453125 -15.890625 C 25.785156 -16.804688 23.203125 -17.707031 19.703125 -18.59375 C 16.503906 -19.4375 13.894531 -20.285156 11.875 -21.140625 C 9.863281 -22.003906 8.140625 -23.285156 6.703125 -24.984375 C 5.265625 -26.691406 4.546875 -28.929688 4.546875 -31.703125 C 4.546875 -33.898438 5.195312 -35.910156 6.5 -37.734375 C 7.8125 -39.566406 9.671875 -41.019531 12.078125 -42.09375 C 14.484375 -43.164062 17.234375 -43.703125 20.328125 -43.703125 C 25.085938 -43.703125 28.929688 -42.5 31.859375 -40.09375 C 34.785156 -37.6875 36.351562 -34.390625 36.5625 -30.203125 L 29.421875 -30.203125 C 29.265625 -32.453125 28.363281 -34.257812 26.71875 -35.625 C 25.070312 -36.988281 22.863281 -37.671875 20.09375 -37.671875 C 17.53125 -37.671875 15.488281 -37.117188 13.96875 -36.015625 C 12.445312 -34.921875 11.6875 -33.484375 11.6875 -31.703125 C 11.6875 -30.285156 12.144531 -29.117188 13.0625 -28.203125 C 13.976562 -27.296875 15.128906 -26.566406 16.515625 -26.015625 C 17.898438 -25.460938 19.820312 -24.847656 22.28125 -24.171875 C 25.375 -23.328125 27.882812 -22.5 29.8125 -21.6875 C 31.75 -20.882812 33.410156 -19.671875 34.796875 -18.046875 C 36.179688 -16.421875 36.898438 -14.300781 36.953125 -11.6875 C 36.953125 -9.332031 36.296875 -7.210938 34.984375 -5.328125 C 33.679688 -3.453125 31.835938 -1.976562 29.453125 -0.90625 C 27.078125 0.164062 24.347656 0.703125 21.265625 0.703125 Z M 21.265625 0.703125 "/></g></g></g><g fill="#ffffff" fill-opacity="1"><g transform="translate(143.48277, 71.12632)"><g><path d="M 30.046875 0 L 13.1875 -18.984375 L 13.1875 0 L 6.046875 0 L 6.046875 -58.0625 L 13.1875 -58.0625 L 13.1875 -23.9375 L 29.734375 -43 L 39.703125 -43 L 19.453125 -21.578125 L 39.78125 0 Z M 30.046875 0 "/></g></g></g><g fill="#ffffff" fill-opacity="1"><g transform="translate(183.893491, 71.12632)"><g><path d="M 40.71875 -55.078125 L 40.71875 -44.328125 L 18.28125 -44.328125 L 18.28125 -32.71875 L 35.078125 -32.71875 L 35.078125 -22.28125 L 18.28125 -22.28125 L 18.28125 0 L 4.859375 0 L 4.859375 -55.078125 Z M 40.71875 -55.078125 "/></g></g></g><g fill="#ffffff" fill-opacity="1"><g transform="translate(226.80953, 71.12632)"><g><path d="M 18.28125 -58.0625 L 18.28125 0 L 4.859375 0 L 4.859375 -58.0625 Z M 18.28125 -58.0625 "/></g></g></g><g fill="#ffffff" fill-opacity="1"><g transform="translate(249.95438, 71.12632)"><g><path d="M 24.796875 0.625 C 20.503906 0.625 16.644531 -0.285156 13.21875 -2.109375 C 9.789062 -3.941406 7.097656 -6.554688 5.140625 -9.953125 C 3.179688 -13.359375 2.203125 -17.335938 2.203125 -21.890625 C 2.203125 -26.390625 3.191406 -30.351562 5.171875 -33.78125 C 7.160156 -37.207031 9.878906 -39.832031 13.328125 -41.65625 C 16.785156 -43.488281 20.660156 -44.40625 24.953125 -44.40625 C 29.242188 -44.40625 33.113281 -43.488281 36.5625 -41.65625 C 40.019531 -39.832031 42.738281 -37.207031 44.71875 -33.78125 C 46.707031 -30.351562 47.703125 -26.390625 47.703125 -21.890625 C 47.703125 -17.390625 46.695312 -13.425781 44.6875 -10 C 42.675781 -6.570312 39.929688 -3.941406 36.453125 -2.109375 C 32.972656 -0.285156 29.085938 0.625 24.796875 0.625 Z M 24.796875 -10.984375 C 27.359375 -10.984375 29.539062 -11.925781 31.34375 -13.8125 C 33.15625 -15.695312 34.0625 -18.390625 34.0625 -21.890625 C 34.0625 -25.398438 33.179688 -28.09375 31.421875 -29.96875 C 29.671875 -31.851562 27.515625 -32.796875 24.953125 -32.796875 C 22.335938 -32.796875 20.164062 -31.867188 18.4375 -30.015625 C 16.707031 -28.160156 15.84375 -25.453125 15.84375 -21.890625 C 15.84375 -18.390625 16.691406 -15.695312 18.390625 -13.8125 C 20.097656 -11.925781 22.234375 -10.984375 24.796875 -10.984375 Z M 24.796875 -10.984375 "/></g></g></g><g fill="#ffffff" fill-opacity="1"><g transform="translate(299.93156, 71.12632)"><g><path d="M 67.71875 -43.78125 L 55.875 0 L 41.046875 0 L 34.140625 -28.40625 L 27 0 L 12.234375 0 L 0.3125 -43.78125 L 13.734375 -43.78125 L 19.9375 -12.46875 L 27.3125 -43.78125 L 41.515625 -43.78125 L 48.96875 -12.640625 L 55.078125 -43.78125 Z M 67.71875 -43.78125 "/></g></g></g><g clip-path="url(#4c1482787e)"><path fill="#99b83c" d="M 102.082031 15.753906 L 100.195312 17.039062 C 90.332031 23.757812 80.230469 37.664062 75.191406 48.96875 C 74.414062 47.886719 74.179688 47.527344 73.425781 46.320312 C 70.34375 42.175781 66.4375 38.621094 64.585938 37.308594 L 61.6875 38.511719 L 61.78125 38.683594 C 63.78125 40.863281 67.289062 45.699219 72.574219 56.355469 C 72.898438 56.816406 73.246094 57.265625 73.640625 57.6875 C 74.675781 58.792969 75.734375 59.023438 76.441406 59.023438 C 76.445312 59.023438 76.445312 59.023438 76.445312 59.023438 C 78.460938 59.023438 79.652344 57.4375 80.472656 55.578125 C 85.769531 36.007812 98.285156 22.535156 103.695312 17.921875 Z M 102.082031 15.753906 " fill-opacity="1" fill-rule="nonzero"/></g></svg>